<svg xmlns="http://www.w3.org/2000/svg" width="2000" height="1993.54" viewBox="0 0 2000 1993.54"><g fill="#fff"><path d="m852.46 836.52c84.59.19 169.28-.19 253.87-.1 18 .67 45.45.76 47.74 24.35 3.72 26 6 54.61-5.92 78.86-18.62 10.5-40.48 9.36-61 9.74q-117.29-.57-234.58-.1-.44-56.41-.11-112.75"/><path d="m852.46 1027.56q112.57.29 225-.19c23.49.58 48.21-.38 70.08 9.74 16.9 25.4 11.45 58.91 7.92 87.46-3.43 23.58-31.22 22.43-49.45 24.34-84.5 1.72-169-.09-253.49.67q-.52-61-.06-122.02"/></g><g fill="#2949fe"><path d="m1002.26.06c208-2.3 415.42 65.87 583.55 187.89 179.3 129.18 314.19 319.05 375.12 531.61 68.84 236.59 46.31 498.86-64.44 719.31-101.59 206-276.88 374.55-486.64 468-210.14 95.4-453.85 111.73-675.85 50.53-244.9-67.69-460.67-233.34-589.66-452.17-67.23-111.8-110.58-237.23-129.87-366.15-11.07-46.69-15.37-94.52-14.32-142.55 27.12.1 54.33 0 81.44-.38 3.25 191.91 62.35 383.24 176.44 538.39 132.14 182.83 333.21 315.07 554.33 360.9 197.35 42 408.35 16.8 589.66-71.9 212.62-102.35 382.57-289.67 463.34-511.46 67.6-182.36 74.47-386.39 19.19-572.95-62.63-216.63-209.09-407-401.19-524.73-143.69-89-312.3-136.82-481.29-136.63 0-25.87 0-51.84.19-77.71"/><path d="M811.12,240.75C873.75,224,938.68,219.46,1003,215.54q.29,40.53.09,81.06c-153.9-2.19-307,51.18-428.49,145.41-139.2,106.84-236.4,267.43-264,441-24.54,140.16-2,287.48,59.29,415.61,74.47,156,208.52,282.41,368.82,347.24,149.71,61.49,321.09,68,475.18,18.81,137.3-43.44,260.17-130.61,347.06-245.47,92.23-120.39,142.45-271.34,142.92-422.86,26.16.29,52.32.19,78.39.19.19,167.66-55.38,334.45-156.58,468.12-111,148.66-277,255.4-458.67,293.87-167.27,37-346.38,15.47-500.76-58.43-132-63.11-245.85-163.93-323.57-288C258.41,1279.52,216.31,1120.75,223,963.88c6.59-153,58.91-303.9,150-427.25C478.68,391,636.59,284.48,811.12,240.75Z"/><path d="m586.09 582.07c107.22-104.73 254-170.71 404.81-170.32 144.84-5.25 290 48.59 398.61 144.16 132 114.48 206.61 290.54 198.69 465-5.25 146.27-68.94 287.29-170.81 391.74-19-18.43-37.71-37-56.42-55.76 108.46-109.51 165.93-268.67 145-422-15.66-135.58-89.46-263.13-199.16-344.19-92.61-69.8-209.76-106.55-325.67-100.63-127.34 2.93-249.26 60.93-340.25 148.53-18.05-19.1-36.47-37.81-54.8-56.53"/><path d="m868.6 637.93c25.59.09 51.17.09 76.67.19q.13 60 .19 120c27.11-.09 54.13-.09 81.25-.09-.1-40 .09-80 .28-120q38.38.15 76.76.1c.2 39.81.39 79.63.29 119.53 46.4 2.2 105.12-9.83 138.82 31 24.83 40.39 18.91 91.37 15.09 136.53-2.68 33-33.61 49.75-59.29 64.07 30.64 16.32 63.3 40.86 63.87 79.24-.29 44.78 12.22 99.49-22.72 134.91-36.57 33.32-89.65 32.17-136.06 33 .39 36 .29 71.9.29 107.8-25.78-.2-51.46-.29-77.24-.2.1-36.28-.19-72.46-.09-108.74-27.12.19-54.23.28-81.35.09.19 36.19-.09 72.37 0 108.56-25.68-.1-51.46 0-77.14.19 0-36.09-.29-72.18.09-108.27q-63.87-.57-127.65-.19c.29-159.25 0-318.41.19-477.57 41.63-.19 83.26-.29 125 .1 2-40.1 2.58-80.2 2.77-120.3m-16.16 198.64q-.29 56.28.1 112.75 117.29-.57 234.58.1c20.53-.38 42.39.76 61-9.74 11.94-24.25 9.64-52.89 5.92-78.86-2.29-23.59-29.79-23.68-47.74-24.35-84.59-.09-169.28.29-253.87.1m0 191q-.42 61 .1 122c84.49-.76 169 1.05 253.49-.67 18.23-1.91 46-.76 49.45-24.34 3.53-28.55 9-62.06-7.92-87.46-21.87-10.12-46.59-9.16-70.08-9.74q-112.56.5-225.03.25"/></g></svg>