<svg xmlns="http://www.w3.org/2000/svg" width="400" height="60" viewBox="0 0 400 60"><title>logo_bitpoint</title><path d="M60.607,8.582A11.434,11.434,0,0,0,40.723,4.147L0,46.032H19.177A22.689,22.689,0,0,0,33.154,50.08l4.277,8.3h6.191l-4.78-9.271A22.639,22.639,0,0,0,54.2,21.887,11.452,11.452,0,0,0,60.66,14.1l4.75-2.743ZM41.321,36.454a12.769,12.769,0,0,1-18.062,0L41.321,18.393a12.772,12.772,0,0,1,0,18.061m8.218-22.741a2.271,2.271,0,1,1,2.271-2.27,2.271,2.271,0,0,1-2.271,2.27" fill="#00b9ff"/><rect x="125.546" y="5.929" width="9.18" height="52.621" fill="#00b9ff"/><rect x="291.402" y="5.929" width="9.179" height="52.621" fill="#00b9ff"/><polygon points="142.835 15.109 156.03 15.109 156.03 58.55 165.208 58.55 165.208 15.109 178.401 15.109 178.401 5.929 142.835 5.929 142.835 15.109" fill="#00b9ff"/><polygon points="364.435 5.929 364.435 15.109 377.627 15.109 377.627 58.55 386.807 58.55 386.807 15.109 400 15.109 400 5.929 364.435 5.929" fill="#00b9ff"/><path d="M107.119,25.121A13.369,13.369,0,0,0,95.055,5.929H79.662V58.55H99.906a17.49,17.49,0,0,0,7.213-33.429M88.84,15.109h6.215a4.22,4.22,0,1,1,0,8.439H88.84ZM99.906,49.371H88.84V32.726H99.906a8.323,8.323,0,1,1,0,16.645" fill="#00b9ff"/><path d="M204.6,5.929H186.671V58.55h9.18V40.932H204.6a17.5,17.5,0,0,0,0-35m0,25.825h-8.753V15.109H204.6a8.323,8.323,0,1,1,0,16.645" fill="#00b9ff"/><polygon points="347.072 38.11 312.493 4.768 312.493 58.55 321.672 58.55 321.672 26.372 356.251 59.706 356.251 5.929 347.072 5.929 347.072 38.11" fill="#00b9ff"/><path d="M255.155,5.339a26.908,26.908,0,1,0,26.907,26.905,26.937,26.937,0,0,0-26.907-26.9m0,44.634a17.728,17.728,0,1,1,17.728-17.729,17.747,17.747,0,0,1-17.728,17.729" fill="#00b9ff"/></svg>