<svg viewBox="0 0 90 90" xmlns="http://www.w3.org/2000/svg"><g fill="none" fill-rule="evenodd"><path fill="#457DF5" d="M0 0h90v90H0z"/><circle fill="#FFF" cx="45" cy="45" r="35"/><path fill="#457DF5" d="M20 20h50v50H20z"/><path d="M46.475 55.49c2.951 0 5.607-1.057 7.525-3.021l-3.689-3.777c-.885 1.057-2.213 1.662-3.688 1.662-2.95 0-5.312-2.267-5.312-5.288 0-3.022 2.361-5.44 5.312-5.44 1.475 0 2.803.605 3.54 1.512l3.69-3.626c-1.919-1.813-4.574-3.022-7.378-3.022C40.721 34.49 36 39.174 36 45.066c0 5.74 4.574 10.424 10.475 10.424Z" fill="#FFF"/></g></svg>