<?xml version="1.0" encoding="UTF-8"?>
<svg xmlns:xodm="http://www.corel.com/coreldraw/odm/2003" xmlns="http://www.w3.org/2000/svg" xmlns:xlink="http://www.w3.org/1999/xlink" version="1.1" id="Layer_1" x="0px" y="0px" viewBox="0 0 2500 2500" style="enable-background:new 0 0 2500 2500;" xml:space="preserve">
<style type="text/css">
	.st0{fill:none;}
	.st1{fill:#FE4040;}
	.st2{fill:#00C46B;}
</style>
<g id="Layer_x0020_1">
	<rect y="0" class="st0" width="2500" height="2500"></rect>
	<g id="sign">
		<path id="a" class="st1" d="M656,149.9l152.4,377C565,676.1,403,944,403,1250.2c0,468,379.2,847.1,847.3,847.1    c63.2,0,125-7.1,184.5-20.2l152.4,377c-109.5,30.6-222.8,46-336.6,46C559.7,2500,0,1940.4,0,1250.2C0,774.8,265.4,361.3,656,149.9    L656,149.9z"></path>
		<path class="st1" d="M656,149.9l152.4,377C565,676.1,403,944,403,1250.2c0,468,379.2,847.1,847.3,847.1c63.2,0,125-7.1,184.5-20.2    l152.4,377c-109.5,30.6-222.8,46-336.6,46C559.7,2500,0,1940.4,0,1250.2C0,774.8,265.4,361.3,656,149.9L656,149.9z"></path>
		<path id="Path" class="st2" d="M1250,1694.6c-245.3,0-444.3-198.9-444.3-444.4c0-245.5,199-444.4,444.3-444.4    c173.1,0,322.8,98.7,396.2,243.1h426.8C1982.5,678,1648.4,403,1249.7,403c-63.2,0-125,7-184.5,20.2L913.3,46    C1022.9,15.3,1136.1,0,1250,0c690.3,0,1250,559.6,1250,1250.2c0,475.4-265.4,888.5-655.7,1100l-152.4-377    c187.9-115.2,327.7-301.6,381.4-521.6h-426.7c-26.8,52.7-64.2,99.6-109.2,137.9C1456.7,1657.5,1355.2,1694.6,1250,1694.6    L1250,1694.6L1250,1694.6z"></path>
	</g>
</g>
</svg>
