<?xml version="1.0" encoding="UTF-8"?>
<svg xmlns:xodm="http://www.corel.com/coreldraw/odm/2003" xmlns="http://www.w3.org/2000/svg" xmlns:xlink="http://www.w3.org/1999/xlink" version="1.1" id="Layer_1" x="0px" y="0px" viewBox="0 0 2500 2500" style="enable-background:new 0 0 2500 2500;" xml:space="preserve">
<style type="text/css">
	.st0{fill:none;}
	.st1{fill:#2E4592;}
	.st2{fill:#FFFFFF;}
</style>
<g id="Layer_x0020_1">
	<rect y="0" class="st0" width="2500" height="2500"></rect>
	<g id="_2497851986272">
		<path class="st1" d="M1945.6,244.5l261.4,452.8l0.3-0.2l269.7,467.1c32.2,55.5,29.6,121.6-0.9,173.2l-268.8,465.5l-5.5,8.9    l-264.2,457.6c-31.6,54.9-89,85.7-148.1,85.8v0.7H710.6c-69.3,0-129.1-41.1-156.1-100.4l-261.4-452.8l-0.3,0.2L23.1,1335.8    c-32.2-55.5-29.6-121.6,0.9-173.2l268.8-465.5l5.5-8.9l264.2-457.6c31.6-54.9,89-85.7,148.1-85.8v-0.7h1078.8    C1858.7,144.1,1918.5,185.3,1945.6,244.5L1945.6,244.5z"></path>
		<path class="st2" d="M913.2,1702.3c35.4,0,64.2,28.8,64.2,64.2c0,35.4-28.8,64.2-64.2,64.2H776.4c-61.2,0-116.8-25.4-157.1-66.4    c-40-40.7-64.9-96.7-64.9-158.2v-513.5c0-61.5,24.9-117.5,64.9-158.2c40.3-41,96-66.5,157.1-66.5h321.9V688.1H624.2    c-35.4,0-64.2-28.8-64.2-64.2s28.8-64.2,64.2-64.2h1251.6c35.4,0,64.2,28.8,64.2,64.2s-28.8,64.2-64.2,64.2h-474.1V868h321.9    c61.2,0,116.8,25.5,157.1,66.5c40,40.7,64.9,96.7,64.9,158.2v513.5c0,61.5-24.9,117.5-64.9,158.2c-40.3,41-96,66.4-157.1,66.4    h-139.2c-35.4,0-64.2-28.8-64.2-64.2s28.8-64.2,64.2-64.2h139.2c25.6,0,49-10.7,65.8-27.8c17.2-17.4,27.8-41.7,27.8-68.4v-513.5    c0-26.8-10.7-51-27.8-68.4c-16.9-17.2-40.2-27.8-65.8-27.8h-321.9v895.9c0,26.5-21.6,48.1-48.1,48.1h-64.2v-944h-78.8v944h-64.2    c-26.5,0-48.1-21.6-48.1-48.1V996.3H776.4c-25.6,0-49,10.7-65.8,27.8c-17.1,17.4-27.8,41.7-27.8,68.4v513.5    c0,26.8,10.7,51,27.8,68.4c16.9,17.2,40.2,27.8,65.8,27.8H913.2L913.2,1702.3z M1289.4,688h-78.8V868h78.8V688L1289.4,688z"></path>
	</g>
</g>
</svg>
