<svg clip-rule="evenodd" fill-rule="evenodd" stroke-linejoin="round" stroke-miterlimit="2" viewBox="0 0 560 400" xmlns="http://www.w3.org/2000/svg"><g fill-rule="nonzero" transform="matrix(4.33088 0 0 4.3148 176.059 87.8151)"><path d="m19.44 1.96c2.818-1.629 6.302-1.629 9.12 0l13.98 8.08c2.813 1.627 4.551 4.64 4.55 7.89v16.14c.005 3.253-1.734 6.272-4.55 7.9l-13.98 8.07c-2.818 1.629-6.302 1.629-9.12 0l-13.98-8.08c-2.813-1.627-4.551-4.64-4.55-7.89v-16.14c-.005-3.253 1.734-6.272 4.55-7.9z" fill="#ef4723"/><path d="m6.58 34.8v-17.36h3.68l5.84 13.51h.07l5.76-13.51h3.64v17.36h-2.85l.22-13.24h-.1l-5.64 13.25h-2.2l-5.67-13.01h-.1l.2 13zm21.79.02v-17.38h7.68c.95 0 1.77.1 2.48.3.7.2 1.3.5 1.77.9s.81.87 1.03 1.42c.398.989.461 2.082.18 3.11-.1.37-.27.72-.5 1.04-.22.32-.51.6-.86.83-.34.24-.74.42-1.2.56v.1c.53.1 1 .27 1.42.5.831.43 1.466 1.165 1.77 2.05.17.44.25.9.25 1.41 0 .74-.12 1.44-.38 2.07-.251.627-.636 1.19-1.13 1.65-.49.45-1.1.8-1.85 1.06-.796.264-1.631.392-2.47.38zm7.96-7.84h-5.1v5.48h5.1c.54 0 1-.07 1.39-.2.741-.211 1.337-.766 1.6-1.49.264-.72.264-1.51 0-2.23-.296-.675-.887-1.177-1.6-1.36-.4-.14-.87-.2-1.39-.2zm-.48-7.2h-4.62v4.9h4.6c.48 0 .91-.06 1.28-.18.4-.13.71-.32.96-.56.725-.737.952-1.835.58-2.8-.1-.29-.27-.53-.53-.73-.23-.2-.54-.36-.93-.46-.435-.125-.887-.182-1.34-.17z" fill="#fff"/></g></svg>