<?xml version="1.0" encoding="utf-8"?>
<!-- Generator: Adobe Illustrator 25.0.1, SVG Export Plug-In . SVG Version: 6.00 Build 0)  -->
<svg version="1.0" id="Layer_1" xmlns="http://www.w3.org/2000/svg" xmlns:xlink="http://www.w3.org/1999/xlink" x="0px" y="0px"
	 viewBox="0 0 1314 935.1" style="enable-background:new 0 0 1314 935.1;" xml:space="preserve">
<style type="text/css">
	.st0{fill:#5E8323;}
	.st1{fill:#8BA532;}
	.st2{fill:#FEFEFD;}
	.st3{fill:#8CA632;}
	.st4{fill:#5E8223;}
	.st5{fill:none;}
</style>
<path class="st0" d="M1003.7,816.2c-230.5,0-461,0-691.4,0.1c-3.5,0-4.2-0.7-4.2-4.2c0.1-230.5,0.1-461,0.1-691.4
	c2.4,0.3,3.6,2.3,5.1,3.8c43.3,43.3,86.6,86.5,129.8,129.8c1.4,1.4,3,2.8,4.5,4.1c0,16.3,0.2,32.5,0.1,48.8c0,3.5,0.7,4.7,4.5,4.6
	c10.9-0.2,21.8,0,32.7-0.1c2.9,0,3.7,0.8,3.7,3.7c-0.1,44.9-0.1,89.8,0,134.6c0,3.2-1.1,3.8-4,3.7c-10.9-0.1-21.8,0.1-32.7-0.1
	c-3.2-0.1-4.2,0.7-4.2,4c0.1,24.4,0.1,48.8,0,73.2c0,3.5,1.1,4,4.2,4c10.5-0.2,20.9,0.1,31.4-0.2c4.1-0.1,5.3,0.8,5.3,5.1
	c-0.2,53.5-0.1,106.9-0.2,160.4c0,3.6,1,4.5,4.6,4.5c31.7-0.1,63.3-0.1,95,0c4.2,0,4.9-1.4,4.9-5.1c-0.1-53.5,0-106.9-0.2-160.3
	c0-3.6,0.9-4.5,4.5-4.5c42-0.2,83.9,0.9,125.9-0.6c1.4,1.5,2.8,3,4.2,4.4c90.8,90.8,181.6,181.6,272.4,272.4
	C1001.2,812.4,1003.4,813.6,1003.7,816.2z"/>
<path class="st1" d="M447.6,258.3c-1.5-1.4-3-2.7-4.5-4.1c-43.3-43.3-86.6-86.5-129.8-129.8c-1.5-1.5-2.7-3.5-5.1-3.8
	c0.4-0.6-0.9-1.9,0.9-1.8c1,0.1,2,0,3.1,0c229.8,0,459.6,0,689.5-0.1c3.3,0,4,0.7,4,4c-0.1,229.8-0.1,459.6-0.2,689.5
	c0,1.1,2.2,4-1.6,3.9c-0.3-2.6-2.5-3.8-4.1-5.5c-90.8-90.8-181.6-181.6-272.4-272.4c-1.4-1.4-2.8-3-4.2-4.4
	c12.6-1.2,25.1-2.8,37.3-6.4c45.4-13.4,79.1-40.1,95.4-85.8c11.7-33,13.2-66.6,5.3-100.7c-10.2-43.9-35.7-75.4-76.5-94.4
	c-25.1-11.7-51.8-15.8-79.1-15.9c-84.5-0.3-169-0.1-253.6-0.2c-3.4,0-4.1,1.2-4,4.3C447.8,242.6,447.6,250.5,447.6,258.3z"/>
<path class="st2" d="M447.6,258.3c0-7.8,0.2-15.7,0.1-23.5c0-3.1,0.6-4.3,4-4.3c84.5,0.1,169-0.1,253.6,0.2
	c27.3,0.1,54,4.2,79.1,15.9c40.8,19.1,66.4,50.6,76.5,94.4c7.9,34.1,6.5,67.8-5.3,100.7c-16.2,45.7-50,72.4-95.4,85.8
	c-12.1,3.6-24.7,5.2-37.3,6.4c-42,1.6-83.9,0.4-125.9,0.7c-3.6,0-4.5,0.9-4.5,4.5c0.1,53.5,0,106.9,0.2,160.4c0,3.8-0.7,5.2-4.9,5.1
	c-31.7-0.2-63.3-0.2-95,0c-3.6,0-4.6-0.9-4.6-4.5c0.1-53.5,0-106.9,0.2-160.4c0-4.3-1.2-5.2-5.3-5.1c-10.4,0.3-20.9,0-31.4,0.2
	c-3.1,0.1-4.2-0.5-4.2-4c0.2-24.4,0.2-48.8,0-73.2c0-3.4,1-4.1,4.2-4c10.9,0.2,21.8,0,32.7,0.1c2.9,0,4-0.5,4-3.7
	c-0.1-44.9-0.1-89.8,0-134.6c0-2.9-0.8-3.7-3.7-3.7c-10.9,0.2-21.8-0.1-32.7,0.1c-3.7,0.1-4.5-1.1-4.5-4.6
	C447.8,290.8,447.6,274.6,447.6,258.3z M593,404.6c-0.1,15.5-0.1,31-0.3,46.4c0,2.2,0.9,2.6,2.8,2.6c15.5-0.1,31-0.1,46.5-0.2
	c13.5,0,27,0.3,40.5-0.1c11.2-0.4,22.3-1.4,33.2-4.1c24.7-6.3,41.5-20.7,47.2-46.3c2.3-11.3,2.7-22.8,1.1-34.2
	c-2.8-21.1-13-37.2-32.5-46.9c-13.3-6.6-27.7-8.6-42.2-9.4c-30.6-1.7-61.3-0.4-91.9-0.9c-4.1-0.1-4.7,1.4-4.7,5
	c0.1,19.5,0,38.9,0.1,58.4C592.8,384.8,592.9,394.7,593,404.6z"/>
<path class="st3" d="M593,404.6c-0.1-9.9-0.2-19.7-0.2-29.6c0-19.5,0.1-38.9-0.1-58.4c0-3.6,0.6-5.1,4.7-5
	c30.6,0.5,61.3-0.8,91.9,0.9c14.5,0.8,28.9,2.8,42.2,9.4c19.5,9.7,29.7,25.7,32.5,46.9c1.6,11.4,1.3,23-1.1,34.2
	c-5.6,25.6-22.5,40-47.2,46.3c-10.9,2.8-22,3.8-33.2,4.1c-13.5,0.4-27,0.1-40.5,0.1c-12.3-12.4-24.5-24.9-36.9-37.2
	C601.2,412.3,597.5,408,593,404.6z"/>
<path class="st4" d="M593,404.6c4.5,3.4,8.2,7.7,12.2,11.7c12.3,12.4,24.6,24.8,36.9,37.2c-15.5,0-31,0.1-46.5,0.2
	c-2,0-2.9-0.5-2.8-2.6C592.9,435.6,592.9,420,593,404.6z"/>
<rect x="282" y="92.6" class="st5" width="750" height="750"/>
</svg>
