<svg xmlns="http://www.w3.org/2000/svg" height="800" width="1200" viewBox="-130.99605 -62.8045 1135.2991 376.827"><defs><linearGradient gradientTransform="translate(-28.347 -25.298)" gradientUnits="userSpaceOnUse" y2="219.983" x2="231.177" y1="72.488" x1="83.682" id="a"><stop stop-color="#00aae4" offset="0"/><stop stop-color="#006097" offset="1"/></linearGradient></defs><path d="M318.31 94.85c-2.308-.769-7.178-1.282-12.049-1.282-14.612 0-30.25 11.837-30.25 26.449V189.7h-33.325V65.37h32.044v12.56c7.434-9.228 21.02-15.124 36.145-15.124a67.94 67.94 0 0111.28 1.025zM355.991 0c12.049 0 21.79 9.229 21.79 21.277 0 12.049-9.74 21.277-21.79 21.277-12.049 0-21.79-9.228-21.79-21.277C334.201 9.23 343.943 0 355.991 0zm16.663 189.7h-33.326V65.37h33.326V189.7zm98.442-126.9a56.898 56.898 0 00-36.4 12.573V65.369h-32.052v185.849h33.329v-70.232a52.428 52.428 0 0033.328 11.282c18.459 0 36.143-8.21 47.166-21.028 9.746-11.282 15.631-26.655 15.631-43.577 0-36.659-27.17-64.863-61.002-64.863zm-4.05 99.21c-20.702 0-34.308-14.285-34.308-34.239 0-19.953 13.606-34.239 34.307-34.239 17.67 0 31.997 15.332 31.997 34.24 0 18.907-14.327 34.239-31.997 34.239zm267.317 27.69h-33.326V7.69h33.326V189.7zm135.867-19.74c-12.05 14.356-31.79 22.303-51.015 22.303-37.17 0-65.113-25.634-65.113-64.6 0-34.608 23.584-64.857 60.5-64.857 34.35 0 58.704 28.967 58.704 63.575a54.702 54.702 0 01-.77 9.485h-86.134c1.795 17.431 15.894 29.48 33.583 29.48 14.098 0 25.378-7.947 31.274-14.356zm-31.02-58.447c-1.025-11.023-11.022-21.79-24.61-21.79-13.843 0-25.121 10.51-26.66 21.79zM620.294 62.8a56.898 56.898 0 00-36.4 12.573V65.369h-32.051v185.849h33.328v-70.232a52.428 52.428 0 0033.329 11.282c18.459 0 36.142-8.21 47.166-21.028 9.745-11.282 15.631-26.655 15.631-43.577 0-36.659-27.171-64.863-61.003-64.863zm-4.05 99.21c-20.702 0-34.308-14.285-34.308-34.239 0-19.953 13.607-34.24 34.308-34.24 17.67 0 31.996 15.333 31.996 34.24 0 18.907-14.326 34.24-31.996 34.24z" fill="#434c54"/><path d="M173.985 144.403c-7.525-4.345-15.998-5.604-24.39-5.897-7.043-.246-17.549-4.758-17.549-17.568 0-9.544 7.737-17.225 17.552-17.568 8.392-.293 16.864-1.554 24.387-5.897a44.448 44.448 0 10-66.672-38.491c0 8.612 3.063 16.536 6.971 23.887 3.287 6.182 4.95 17.656-6.323 24.164-8.386 4.842-18.852 1.776-24.08-6.59-4.416-7.067-9.747-13.688-17.21-17.998a44.447 44.447 0 100 76.985c7.461-4.308 12.792-10.925 17.205-17.987 3.624-5.8 12.675-13.191 24.084-6.599 8.374 4.838 10.962 15.438 6.32 24.169-3.907 7.349-6.966 15.272-6.966 23.882a44.447 44.447 0 1066.67-38.492z" fill="url(#a)"/></svg>