<?xml version="1.0" encoding="utf-8"?>
<!-- Generator: Adobe Illustrator 25.0.1, SVG Export Plug-In . SVG Version: 6.00 Build 0)  -->
<svg version="1.0" id="Layer_1" xmlns="http://www.w3.org/2000/svg" xmlns:xlink="http://www.w3.org/1999/xlink" x="0px" y="0px"
	 viewBox="0 0 874 507" style="enable-background:new 0 0 874 507;" xml:space="preserve">
<style type="text/css">
	.st0{clip-path:url(#SVGID_2_);}
	.st1{fill:#0B122E;}
	.st2{fill:#376FFF;}
	.st3{fill:none;}
</style>
<symbol  id="logo-light-mode" viewBox="-52.9 -15.8 105.8 31.5">
	<g>
		<defs>
			<rect id="SVGID_1_" x="-52.9" y="-15.7" width="105.8" height="31.5"/>
		</defs>
		<clipPath id="SVGID_2_">
			<use xlink:href="#SVGID_1_"  style="overflow:visible;"/>
		</clipPath>
		<g class="st0">
			<path class="st1" d="M-5.4-9.8c-0.8,0-1.4,0.5-1.7,1.2L-13,5.2c-0.1,0.2-0.2,0.5-0.2,0.7c0,0.8,0.7,1.5,1.5,1.4c0,0,0,0,0,0
				c0.7,0,1.3-0.4,1.5-1.1l4.8-12.1l4.9,12.2c0.2,0.6,0.8,1,1.4,1c0.8,0,1.5-0.6,1.5-1.4c0,0,0,0,0,0c0-0.2-0.1-0.4-0.2-0.6l-5.9-14
				c-0.2-0.7-0.9-1.2-1.7-1.2H-5.4z M4.5-8.3c0,0.2,0.1,0.5,0.2,0.7l6.2,13.9c0.3,0.7,1,1.2,1.8,1.2h0.2c0.8,0,1.5-0.5,1.8-1.2
				l6.2-13.9C20.9-7.8,21-8,21-8.2c0-0.8-0.6-1.4-1.3-1.4c0,0,0,0,0,0c-0.6,0-1.2,0.4-1.4,1l-1.4,3.1H8.6L7.2-8.8
				C7-9.3,6.5-9.7,5.9-9.7C5.1-9.7,4.5-9.1,4.5-8.3C4.5-8.3,4.5-8.3,4.5-8.3L4.5-8.3z M9.8-2.9h5.9l-3,6.8L9.8-2.9L9.8-2.9z M24.2-8
				V6c0,0.8,0.6,1.5,1.4,1.5c0,0,0,0,0,0c0.2,0,0.4,0,0.6-0.1c0.2-0.1,0.3-0.2,0.5-0.3C26.9,6.9,27,6.7,27,6.5
				c0.1-0.2,0.1-0.4,0.1-0.6V-6.8h7.6C35.5-6.9,36-7.6,36-8.3c-0.1-0.7-0.6-1.2-1.2-1.2h-9.1c-0.2,0-0.4,0-0.6,0.1
				c-0.2,0.1-0.4,0.2-0.5,0.3c-0.1,0.1-0.2,0.3-0.3,0.5C24.2-8.4,24.2-8.2,24.2-8z M39.1-8.2v14c0,0.8,0.7,1.4,1.5,1.4h6
				c1.8,0.1,3.5-0.5,4.8-1.7c0.9-1,1.4-2.3,1.4-3.6l0,0c0.1-2.4-1.5-4.4-3.8-5l3.2-4.1c0.3-0.3,0.5-0.7,0.5-1.1
				c0-0.8-0.6-1.4-1.4-1.4c0,0,0,0,0,0c-0.6,0-1.1,0.3-1.4,0.8l-4.1,5.2H42v-4.5c0-0.2,0-0.4-0.1-0.6c-0.1-0.2-0.2-0.3-0.3-0.5
				c-0.1-0.1-0.3-0.2-0.4-0.3c-0.2-0.1-0.4-0.1-0.6-0.1C39.8-9.7,39.1-9,39.1-8.2C39.1-8.2,39.1-8.2,39.1-8.2L39.1-8.2z M42-1.1h4.3
				c2.1,0,3.4,1.1,3.4,2.8l0,0c0,1.8-1.3,2.8-3.5,2.8H42V-1.1z"/>
			<path class="st2" d="M-39-9.6l-13.5,23.1c-0.1,0.2-0.2,0.5-0.2,0.7c0,0.3,0.1,0.5,0.2,0.8c0.1,0.2,0.3,0.4,0.5,0.6
				c0.2,0.1,0.5,0.2,0.8,0.2h19l-7.9-13.4c-0.1-0.2-0.2-0.4-0.2-0.6c0-0.2,0-0.4,0-0.6c0.1-0.2,0.1-0.4,0.3-0.5
				c0.1-0.2,0.3-0.3,0.4-0.4c0.7-0.4,1.6-0.2,2.1,0.5c0,0,0,0,0,0l8.8,14.9h10.9c0.3,0,0.5-0.1,0.8-0.2c0.2-0.1,0.4-0.3,0.5-0.6
				c0.1-0.2,0.2-0.5,0.2-0.8c0-0.3-0.1-0.5-0.2-0.8L-33.2-15c-0.4-0.7-1.4-0.9-2.1-0.5c-0.2,0.1-0.4,0.3-0.5,0.5l-1.4,2.5l9,15.4
				c0.1,0.2,0.2,0.4,0.2,0.5c0,0.2,0,0.4,0,0.6c-0.1,0.4-0.4,0.7-0.7,0.9C-29.1,5-29.5,5.1-29.9,5c-0.4-0.1-0.7-0.3-0.9-0.7L-39-9.6
				z"/>
		</g>
	</g>
</symbol>
<use xlink:href="#logo-light-mode"  width="105.8" height="31.5" x="-52.9" y="-15.8" transform="matrix(6.52 0 0 -6.52 437.245 254.7972)" style="overflow:visible;"/>
<rect x="70" y="119" class="st3" width="734" height="269"/>
</svg>
