<svg version="1.1" id="Layer_1" xmlns:x="ns_extend;" xmlns:i="ns_ai;" xmlns:graph="ns_graphs;" xmlns="http://www.w3.org/2000/svg" xmlns:xlink="http://www.w3.org/1999/xlink" x="0px" y="0px" viewBox="0 0 78.2 45.9" style="enable-background:new 0 0 78.2 45.9;" xml:space="preserve">
 <style type="text/css">
  .st0{fill-rule:evenodd;clip-rule:evenodd;fill:#053F33;}
 </style>
 <metadata>
  <sfw xmlns="ns_sfw;">
   <slices>
   </slices>
   <sliceSourceBounds bottomLeftOrigin="true" height="46" width="78.2" x="0" y="-0.1">
   </sliceSourceBounds>
  </sfw>
 </metadata>
 <g>
  <path class="st0" d="M67.6,0L61,22.8c-0.9,3-1.6,6-2.1,9.1l0,0h-0.2c-0.1-1.2-0.4-2.4-0.6-3.5c-0.1-0.5-0.2-1-0.3-1.4L50.5,0H35.7
		l-7.2,27c-0.1,0.4-0.2,0.9-0.3,1.4l0,0c-0.2,1.1-0.5,2.3-0.6,3.5h-0.2l0,0c-0.5-3.1-1.2-6.1-2.1-9.1L18.7,0H8.1l3.1,10.7H0v7.7
		h13.4l2.2,7.6H0v7.7h17.8L21.3,46h12.6l8.5-32.2c0.3-1.2,0.5-2.5,0.6-3.4h0.2c0.1,0.9,0.3,2.2,0.6,3.4L52.3,46h12.6L78.2,0H67.6z">
  </path>
 </g>
</svg>