<svg role="img" viewBox="0 0 24 24" xmlns="http://www.w3.org/2000/svg" id="Zebpay--Streamline-Simple-Icons.svg" height="24" width="24"><desc>Zebpay Streamline Icon: https://streamlinehq.com</desc><title>ZebPay</title><path d="M5.736 10.245S17.304 21.238 16.902 20.83l0.905 -1.091L6.828 9.31c-0.331 0.279 -0.698 0.592 -1.092 0.935Zm-4.88 4.38s-0.828 0.823 -0.855 1.97c-0.018 0.52 0.134 1.108 0.604 1.713 0 0 0.007 0.012 0.026 0.035a2.267 2.267 0 0 0 0.733 0.51c0.038 0.016 0.08 0.035 0.126 0.05 0.11 0.042 0.237 0.077 0.373 0.108a4.28 4.28 0 0 0 1.217 0.064l0.222 -0.023c0.076 -0.011 0.153 -0.02 0.232 -0.034 0.08 -0.012 0.161 -0.027 0.245 -0.042 0.007 0 0.011 0 0.02 -0.004 0.007 0 0.015 0 0.022 -0.004 0.768 -0.151 1.706 -0.467 2.836 -1.022l-4.702 -4.478c-0.373 0.38 -0.743 0.767 -1.1 1.156Zm8.276 -7.472s-0.305 0.236 -0.801 0.636l-0.294 0.236 10.907 10.378 0.92 -1.093L9.161 7.12c-0.011 0.01 -0.019 0.022 -0.03 0.033Zm-5.91 5.07 5.126 4.882a5.421 5.421 0 0 1 1.738 -0.32l-5.816 -5.54c-0.343 0.314 -0.693 0.64 -1.047 0.978Zm5.529 -8.885s-0.414 0.14 -0.61 0.46L20.96 16.011l0.921 -1.09L9.544 3.158c-0.276 0.04 -0.544 0.096 -0.793 0.18Zm5.959 0.443s-1.081 -0.353 -2.434 -0.556l10.818 10.253 0.906 -1.07 -0.722 -0.682 -8.18 -7.79c-0.128 -0.05 -0.256 -0.103 -0.388 -0.155Z" fill="#000000" stroke-width="1"></path></svg>